<svg width="160" height="80" viewBox="0 0 160 80" fill="none" xmlns="http://www.w3.org/2000/svg">
<g id="Marketo logo" clip-path="url(#clip0_380_537)">
<path id="Vector" d="M63.3692 21.8853L48.2837 14.9147V65.0853L63.3692 54.872V21.8853ZM41.2547 22.3333V54.128L29.1072 58.6387V19.28L41.2547 22.3333ZM12.8515 24.4933L12.8076 52.9733L22.1049 50.8853V25.76L12.8515 24.4933Z" fill="#FB6D56"/>
<path id="Vector_2" d="M87.6076 40.584L81.024 31.5227H77.5684V48.196H80.8264V36.0267L87.5197 45.164L94.257 35.964V48.2093H97.4931V31.52H94.1174L87.6076 40.584ZM108.466 48.1947L108.444 46.688C107.468 47.8933 105.871 48.4773 104.166 48.4773C101.683 48.4773 99.9307 47.104 99.9307 45.124C99.9307 42.9573 101.546 41.676 104.784 41.2573L108.329 40.7867V40.6C108.329 39.356 107.244 38.68 105.36 38.68C103.564 38.68 102.034 39.32 100.706 40.3373V37.644C101.902 36.8147 103.565 36.2707 105.568 36.2707C109.402 36.2707 111.487 37.928 111.487 40.7173V48.216L108.466 48.1947ZM104.941 46.2347C106.958 46.2347 108.354 45.1227 108.354 43.5213V42.8813L105.295 43.3147C103.81 43.5213 103.057 44.068 103.057 44.9147C103.079 45.7253 103.841 46.248 104.939 46.248M122.273 39.1707C122.139 39.0947 121.852 39.0773 121.43 39.0773C119.059 39.0773 117.597 40.6413 117.597 43.0507V48.1933H114.381V36.5133H117.573V38.5107C118.238 37.1547 119.879 36.2707 121.651 36.2707C122.006 36.2707 122.205 36.2893 122.273 36.3467V39.1707ZM124.359 48.1947H127.575V43.56L128.284 43.0267L133.182 48.208H137.151L130.742 41.6L136.702 36.5133H132.734L127.57 40.9213V31.5213H124.354L124.359 48.1947ZM149.36 47.2347C147.942 47.988 146.102 48.4787 144.062 48.4787C139.518 48.4787 136.659 45.86 136.659 42.3373C136.659 38.8333 139.518 36.252 143.551 36.252C147.564 36.252 150.135 38.8147 150.135 42.2813C150.135 42.6587 150.135 42.884 150.045 43.2413H139.874C140.117 44.8613 141.694 46.1427 144.263 46.1427C145.992 46.1427 147.677 45.6147 149.339 44.5787V47.2347H149.36ZM146.966 41.168C146.767 39.568 145.437 38.4747 143.487 38.4747C141.537 38.4747 140.095 39.7747 139.874 41.168H146.966ZM158.315 45.968C158.848 45.968 159.401 45.8747 159.821 45.6107V48.06C159.288 48.324 158.469 48.4933 157.361 48.4933C154.591 48.4933 152.972 47.0613 152.972 44.6267V38.8933H150.535L156.186 32.7707V36.5573H159.821V38.8933H156.188V44.1307C156.188 45.464 156.853 45.9973 158.315 45.9973M175.426 42.368C175.426 45.7973 172.323 48.4907 168.111 48.4907C163.899 48.4907 160.797 45.7973 160.797 42.368C160.797 38.9387 163.899 36.2453 168.111 36.2453C172.299 36.2453 175.426 38.9387 175.426 42.368ZM164.011 42.368C164.011 44.3653 165.807 45.968 168.089 45.968C170.395 45.968 172.168 44.368 172.168 42.368C172.168 40.368 170.371 38.768 168.089 38.768C165.807 38.768 164.011 40.368 164.011 42.368Z" fill="#373737"/>
</g>
<defs>
<clipPath id="clip0_380_537">
<rect width="160" height="80" fill="white"/>
</clipPath>
</defs>
</svg>
