<svg width="247" height="91" viewBox="0 0 247 91" fill="none" xmlns="http://www.w3.org/2000/svg">
<path d="M40.6 86V78.528H39.448V77.664H40.6V77.44C40.6 76.7573 40.696 76.1707 40.888 75.68C41.0907 75.1893 41.3733 74.816 41.736 74.56C42.1093 74.2933 42.5467 74.16 43.048 74.16C43.3787 74.16 43.6987 74.208 44.008 74.304C44.3173 74.4 44.584 74.528 44.808 74.688L44.472 75.472C44.3333 75.3547 44.152 75.264 43.928 75.2C43.704 75.136 43.48 75.104 43.256 75.104C42.7547 75.104 42.3653 75.3013 42.088 75.696C41.8213 76.0907 41.688 76.6613 41.688 77.408V77.664H43.992V78.528H41.688V86H40.6ZM48.7676 86.16C48.1703 86.16 47.6156 86.048 47.1036 85.824C46.6023 85.5893 46.165 85.2747 45.7916 84.88C45.429 84.4747 45.1463 84.016 44.9436 83.504C44.741 82.9813 44.6396 82.432 44.6396 81.856C44.6396 81.2587 44.741 80.704 44.9436 80.192C45.1463 79.6693 45.4343 79.2107 45.8076 78.816C46.181 78.4107 46.6183 78.096 47.1196 77.872C47.6316 77.6373 48.1863 77.52 48.7836 77.52C49.381 77.52 49.9303 77.6373 50.4316 77.872C50.933 78.096 51.3703 78.4107 51.7436 78.816C52.117 79.2107 52.405 79.6693 52.6076 80.192C52.8103 80.704 52.9116 81.2587 52.9116 81.856C52.9116 82.432 52.8103 82.9813 52.6076 83.504C52.405 84.016 52.117 84.4747 51.7436 84.88C51.381 85.2747 50.9436 85.5893 50.4316 85.824C49.9303 86.048 49.3756 86.16 48.7676 86.16ZM45.7436 81.872C45.7436 82.4907 45.877 83.056 46.1436 83.568C46.421 84.0693 46.789 84.4693 47.2476 84.768C47.7063 85.056 48.213 85.2 48.7676 85.2C49.3223 85.2 49.829 85.0507 50.2876 84.752C50.7463 84.4533 51.1143 84.048 51.3916 83.536C51.669 83.0133 51.8076 82.448 51.8076 81.84C51.8076 81.2213 51.669 80.656 51.3916 80.144C51.1143 79.632 50.7463 79.2267 50.2876 78.928C49.829 78.6293 49.3223 78.48 48.7676 78.48C48.213 78.48 47.7063 78.6347 47.2476 78.944C46.7996 79.2533 46.437 79.664 46.1596 80.176C45.8823 80.6773 45.7436 81.2427 45.7436 81.872ZM58.2833 86.16C57.6859 86.16 57.1313 86.048 56.6193 85.824C56.1179 85.5893 55.6806 85.2747 55.3073 84.88C54.9446 84.4747 54.6619 84.016 54.4593 83.504C54.2566 82.9813 54.1553 82.432 54.1553 81.856C54.1553 81.2587 54.2566 80.704 54.4593 80.192C54.6619 79.6693 54.9499 79.2107 55.3233 78.816C55.6966 78.4107 56.1339 78.096 56.6353 77.872C57.1473 77.6373 57.7019 77.52 58.2993 77.52C58.8966 77.52 59.4459 77.6373 59.9473 77.872C60.4486 78.096 60.8859 78.4107 61.2593 78.816C61.6326 79.2107 61.9206 79.6693 62.1233 80.192C62.3259 80.704 62.4273 81.2587 62.4273 81.856C62.4273 82.432 62.3259 82.9813 62.1233 83.504C61.9206 84.016 61.6326 84.4747 61.2593 84.88C60.8966 85.2747 60.4593 85.5893 59.9473 85.824C59.4459 86.048 58.8913 86.16 58.2833 86.16ZM55.2593 81.872C55.2593 82.4907 55.3926 83.056 55.6593 83.568C55.9366 84.0693 56.3046 84.4693 56.7633 84.768C57.2219 85.056 57.7286 85.2 58.2833 85.2C58.8379 85.2 59.3446 85.0507 59.8033 84.752C60.2619 84.4533 60.6299 84.048 60.9073 83.536C61.1846 83.0133 61.3233 82.448 61.3233 81.84C61.3233 81.2213 61.1846 80.656 60.9073 80.144C60.6299 79.632 60.2619 79.2267 59.8033 78.928C59.3446 78.6293 58.8379 78.48 58.2833 78.48C57.7286 78.48 57.2219 78.6347 56.7633 78.944C56.3153 79.2533 55.9526 79.664 55.6753 80.176C55.3979 80.6773 55.2593 81.2427 55.2593 81.872ZM63.6869 81.856C63.6869 81.0667 63.8469 80.3467 64.1669 79.696C64.4975 79.0347 64.9509 78.5067 65.5269 78.112C66.1029 77.7173 66.7589 77.52 67.4949 77.52C68.1882 77.52 68.8069 77.7067 69.3509 78.08C69.9055 78.4427 70.3375 78.8853 70.6469 79.408V74.32H71.7349V84.688C71.7349 84.8373 71.7669 84.9493 71.8309 85.024C71.8949 85.088 71.9909 85.1253 72.1189 85.136V86C71.9055 86.032 71.7402 86.0427 71.6229 86.032C71.3989 86.0213 71.2015 85.9307 71.0309 85.76C70.8602 85.5893 70.7749 85.4027 70.7749 85.2V84.384C70.4442 84.928 69.9962 85.36 69.4309 85.68C68.8655 86 68.2789 86.16 67.6709 86.16C67.0949 86.16 66.5615 86.0427 66.0709 85.808C65.5909 85.5733 65.1695 85.2533 64.8069 84.848C64.4549 84.4427 64.1775 83.984 63.9749 83.472C63.7829 82.9493 63.6869 82.4107 63.6869 81.856ZM70.6469 83.136V80.56C70.5082 80.176 70.2842 79.8293 69.9749 79.52C69.6655 79.2 69.3135 78.9493 68.9189 78.768C68.5349 78.576 68.1509 78.48 67.7669 78.48C67.3189 78.48 66.9135 78.576 66.5509 78.768C66.1882 78.9493 65.8735 79.2 65.6069 79.52C65.3509 79.84 65.1535 80.2027 65.0149 80.608C64.8762 81.0133 64.8069 81.4293 64.8069 81.856C64.8069 82.304 64.8815 82.7307 65.0309 83.136C65.1909 83.5413 65.4149 83.904 65.7029 84.224C65.9909 84.5333 66.3215 84.7733 66.6949 84.944C67.0682 85.1147 67.4735 85.2 67.9109 85.2C68.1882 85.2 68.4762 85.1467 68.7749 85.04C69.0735 84.9333 69.3562 84.7893 69.6229 84.608C69.9002 84.416 70.1295 84.192 70.3109 83.936C70.4922 83.68 70.6042 83.4133 70.6469 83.136ZM81.8781 86.16C81.2808 86.16 80.7261 86.048 80.2141 85.824C79.7021 85.5893 79.2595 85.2747 78.8861 84.88C78.5128 84.4747 78.2195 84.0107 78.0061 83.488C77.8035 82.9653 77.7021 82.4053 77.7021 81.808C77.7021 81.0293 77.8781 80.3147 78.2301 79.664C78.5928 79.0133 79.0888 78.496 79.7181 78.112C80.3475 77.7173 81.0621 77.52 81.8621 77.52C82.6835 77.52 83.3981 77.7173 84.0061 78.112C84.6248 78.5067 85.1101 79.0293 85.4621 79.68C85.8141 80.32 85.9901 81.024 85.9901 81.792C85.9901 81.8773 85.9901 81.9627 85.9901 82.048C85.9901 82.1227 85.9848 82.1813 85.9741 82.224H78.8381C78.8915 82.8213 79.0568 83.3547 79.3341 83.824C79.6221 84.2827 79.9901 84.6507 80.4381 84.928C80.8968 85.1947 81.3928 85.328 81.9261 85.328C82.4701 85.328 82.9821 85.1893 83.4621 84.912C83.9528 84.6347 84.2941 84.272 84.4861 83.824L85.4301 84.08C85.2595 84.4747 84.9981 84.832 84.6461 85.152C84.2941 85.472 83.8781 85.7227 83.3981 85.904C82.9288 86.0747 82.4221 86.16 81.8781 86.16ZM78.8061 81.44H84.9661C84.9235 80.832 84.7581 80.2987 84.4701 79.84C84.1928 79.3813 83.8248 79.024 83.3661 78.768C82.9181 78.5013 82.4221 78.368 81.8781 78.368C81.3341 78.368 80.8381 78.5013 80.3901 78.768C79.9421 79.024 79.5741 79.3867 79.2861 79.856C79.0088 80.3147 78.8488 80.8427 78.8061 81.44ZM90.8848 86.16C90.3194 86.16 89.8021 86.0427 89.3328 85.808C88.8741 85.5733 88.4794 85.2533 88.1488 84.848C87.8181 84.4427 87.5621 83.984 87.3808 83.472C87.1994 82.9493 87.1088 82.4053 87.1088 81.84C87.1088 81.2533 87.2101 80.704 87.4128 80.192C87.6154 79.6693 87.8928 79.2107 88.2448 78.816C88.6074 78.4107 89.0288 78.096 89.5088 77.872C89.9994 77.6373 90.5221 77.52 91.0768 77.52C91.7274 77.52 92.3248 77.6907 92.8688 78.032C93.4234 78.3627 93.8554 78.784 94.1648 79.296V77.664H95.1408V89.408H94.0528V84.272C93.2314 85.5307 92.1754 86.16 90.8848 86.16ZM91.2208 85.2C91.6581 85.2 92.0528 85.1147 92.4048 84.944C92.7674 84.7627 93.0821 84.5227 93.3488 84.224C93.6261 83.9253 93.8608 83.5947 94.0528 83.232V80.656C94.0208 80.368 93.9141 80.096 93.7328 79.84C93.5514 79.5733 93.3274 79.3387 93.0608 79.136C92.7941 78.9227 92.5061 78.7627 92.1968 78.656C91.8874 78.5387 91.5834 78.48 91.2848 78.48C90.8261 78.48 90.4101 78.576 90.0368 78.768C89.6741 78.96 89.3541 79.216 89.0768 79.536C88.7994 79.856 88.5861 80.2187 88.4368 80.624C88.2874 81.0293 88.2128 81.44 88.2128 81.856C88.2128 82.4533 88.3408 83.008 88.5968 83.52C88.8634 84.032 89.2208 84.4427 89.6688 84.752C90.1168 85.0507 90.6341 85.2 91.2208 85.2ZM97.4638 82.56V77.664H98.5518V82.368C98.5518 83.3173 98.7118 84.0267 99.0318 84.496C99.3624 84.9653 99.8478 85.2 100.488 85.2C100.914 85.2 101.325 85.1093 101.72 84.928C102.125 84.736 102.482 84.4693 102.792 84.128C103.101 83.776 103.336 83.3707 103.496 82.912V77.664H104.584V84.688C104.584 84.8373 104.616 84.9493 104.68 85.024C104.744 85.088 104.84 85.1253 104.968 85.136V86C104.84 86.0107 104.738 86.016 104.664 86.016C104.589 86.0267 104.52 86.032 104.456 86.032C104.242 86.0107 104.056 85.9253 103.896 85.776C103.746 85.6267 103.666 85.4453 103.656 85.232L103.624 84.112C103.261 84.752 102.765 85.2533 102.136 85.616C101.517 85.9787 100.845 86.16 100.12 86.16C99.2451 86.16 98.5838 85.856 98.1358 85.248C97.6878 84.64 97.4638 83.744 97.4638 82.56ZM107.044 86V77.664H108.132V86H107.044ZM107.044 75.92V74.32H108.132V75.92H107.044ZM114.784 86.16C114.091 86.16 113.467 85.9787 112.912 85.616C112.368 85.2533 111.936 84.8053 111.616 84.272V89.408H110.528V77.664H111.504V79.28C111.835 78.7573 112.277 78.336 112.832 78.016C113.387 77.6853 113.979 77.52 114.608 77.52C115.184 77.52 115.712 77.6427 116.192 77.888C116.672 78.1227 117.088 78.4427 117.44 78.848C117.792 79.2533 118.064 79.7173 118.256 80.24C118.459 80.752 118.56 81.2853 118.56 81.84C118.56 82.6187 118.4 83.3387 118.08 84C117.771 84.6507 117.333 85.1733 116.768 85.568C116.203 85.9627 115.541 86.16 114.784 86.16ZM114.48 85.2C114.939 85.2 115.349 85.1093 115.712 84.928C116.075 84.736 116.384 84.48 116.64 84.16C116.907 83.84 117.109 83.4827 117.248 83.088C117.387 82.6827 117.456 82.2667 117.456 81.84C117.456 81.392 117.376 80.9653 117.216 80.56C117.067 80.1547 116.848 79.7973 116.56 79.488C116.272 79.1787 115.941 78.9333 115.568 78.752C115.195 78.5707 114.789 78.48 114.352 78.48C114.075 78.48 113.787 78.5333 113.488 78.64C113.189 78.7467 112.901 78.9013 112.624 79.104C112.357 79.296 112.133 79.5147 111.952 79.76C111.771 80.0053 111.659 80.2667 111.616 80.544V83.104C111.787 83.4987 112.016 83.856 112.304 84.176C112.592 84.4853 112.923 84.736 113.296 84.928C113.68 85.1093 114.075 85.2 114.48 85.2ZM133.665 74.64V86H132.561V80.688H125.825V86H124.705V74.64H125.825V79.696H132.561V74.64H133.665ZM136.214 82.56V77.664H137.302V82.368C137.302 83.3173 137.462 84.0267 137.782 84.496C138.112 84.9653 138.598 85.2 139.238 85.2C139.664 85.2 140.075 85.1093 140.47 84.928C140.875 84.736 141.232 84.4693 141.542 84.128C141.851 83.776 142.086 83.3707 142.246 82.912V77.664H143.334V84.688C143.334 84.8373 143.366 84.9493 143.43 85.024C143.494 85.088 143.59 85.1253 143.718 85.136V86C143.59 86.0107 143.488 86.016 143.414 86.016C143.339 86.0267 143.27 86.032 143.206 86.032C142.992 86.0107 142.806 85.9253 142.646 85.776C142.496 85.6267 142.416 85.4453 142.406 85.232L142.374 84.112C142.011 84.752 141.515 85.2533 140.886 85.616C140.267 85.9787 139.595 86.16 138.87 86.16C137.995 86.16 137.334 85.856 136.886 85.248C136.438 84.64 136.214 83.744 136.214 82.56ZM149.874 86.16C149.223 86.16 148.62 85.9947 148.066 85.664C147.511 85.3227 147.079 84.896 146.77 84.384V86H145.794V74.32H146.882V79.408C147.255 78.8427 147.703 78.3893 148.226 78.048C148.748 77.696 149.356 77.52 150.05 77.52C150.636 77.52 151.159 77.6427 151.618 77.888C152.087 78.1333 152.487 78.464 152.818 78.88C153.148 79.2853 153.399 79.7493 153.57 80.272C153.74 80.784 153.826 81.312 153.826 81.856C153.826 82.4427 153.724 82.992 153.522 83.504C153.33 84.016 153.052 84.4747 152.69 84.88C152.327 85.2747 151.906 85.5893 151.426 85.824C150.956 86.048 150.439 86.16 149.874 86.16ZM149.618 85.2C150.066 85.2 150.482 85.1093 150.866 84.928C151.25 84.7467 151.58 84.496 151.858 84.176C152.135 83.856 152.348 83.4987 152.498 83.104C152.647 82.6987 152.722 82.2827 152.722 81.856C152.722 81.2693 152.594 80.72 152.338 80.208C152.092 79.6853 151.746 79.2693 151.298 78.96C150.86 78.64 150.343 78.48 149.746 78.48C149.319 78.48 148.919 78.576 148.546 78.768C148.183 78.96 147.858 79.216 147.57 79.536C147.292 79.8453 147.063 80.1867 146.882 80.56V83.152C146.924 83.44 147.036 83.712 147.218 83.968C147.399 84.2133 147.623 84.4267 147.89 84.608C148.167 84.7893 148.455 84.9333 148.754 85.04C149.052 85.1467 149.34 85.2 149.618 85.2Z" fill="white"/>
<path d="M53.472 34.28V57H49.088V47.304H38.784V57H34.368V34.28H38.784V43.464H49.088V34.28H53.472ZM67.1785 57.32C65.8132 57.32 64.5865 57.096 63.4985 56.648C62.4105 56.1787 61.4825 55.5387 60.7145 54.728C59.9678 53.9173 59.3918 52.9893 58.9865 51.944C58.5812 50.8987 58.3785 49.8 58.3785 48.648C58.3785 47.4747 58.5812 46.3653 58.9865 45.32C59.3918 44.2747 59.9678 43.3467 60.7145 42.536C61.4825 41.7253 62.4105 41.096 63.4985 40.648C64.5865 40.1787 65.8132 39.944 67.1785 39.944C68.5438 39.944 69.7598 40.1787 70.8265 40.648C71.9145 41.096 72.8425 41.7253 73.6105 42.536C74.3785 43.3467 74.9545 44.2747 75.3385 45.32C75.7438 46.3653 75.9465 47.4747 75.9465 48.648C75.9465 49.8 75.7438 50.8987 75.3385 51.944C74.9545 52.9893 74.3785 53.9173 73.6105 54.728C72.8638 55.5387 71.9465 56.1787 70.8585 56.648C69.7705 57.096 68.5438 57.32 67.1785 57.32ZM62.7945 48.648C62.7945 49.6293 62.9865 50.504 63.3705 51.272C63.7545 52.0187 64.2772 52.6053 64.9385 53.032C65.5998 53.4587 66.3465 53.672 67.1785 53.672C67.9892 53.672 68.7252 53.4587 69.3865 53.032C70.0478 52.584 70.5705 51.9867 70.9545 51.24C71.3598 50.472 71.5625 49.5973 71.5625 48.616C71.5625 47.656 71.3598 46.792 70.9545 46.024C70.5705 45.256 70.0478 44.6587 69.3865 44.232C68.7252 43.8053 67.9892 43.592 67.1785 43.592C66.3465 43.592 65.5998 43.816 64.9385 44.264C64.2772 44.6907 63.7545 45.288 63.3705 46.056C62.9865 46.8027 62.7945 47.6667 62.7945 48.648ZM80.8955 57V34.28H90.9435C91.9888 34.28 92.9488 34.4933 93.8235 34.92C94.7195 35.3467 95.4875 35.9227 96.1275 36.648C96.7888 37.3733 97.2902 38.184 97.6315 39.08C97.9942 39.976 98.1755 40.8933 98.1755 41.832C98.1755 42.792 98.0048 43.72 97.6635 44.616C97.3435 45.4907 96.8742 46.2587 96.2555 46.92C95.6368 47.5813 94.9115 48.0933 94.0795 48.456L99.2635 57H94.3995L89.7275 49.384H85.3115V57H80.8955ZM85.3115 45.512H90.8475C91.4022 45.512 91.8928 45.352 92.3195 45.032C92.7462 44.6907 93.0875 44.2427 93.3435 43.688C93.5995 43.1333 93.7275 42.5147 93.7275 41.832C93.7275 41.1067 93.5782 40.4773 93.2795 39.944C92.9808 39.3893 92.5968 38.952 92.1275 38.632C91.6795 38.312 91.1888 38.152 90.6555 38.152H85.3115V45.512ZM110.894 57.32C109.55 57.32 108.334 57.096 107.246 56.648C106.158 56.1787 105.23 55.5493 104.462 54.76C103.694 53.9493 103.097 53.032 102.67 52.008C102.265 50.9627 102.062 49.864 102.062 48.712C102.062 47.112 102.414 45.6507 103.118 44.328C103.844 43.0053 104.868 41.9493 106.19 41.16C107.534 40.3493 109.113 39.944 110.926 39.944C112.761 39.944 114.329 40.3493 115.63 41.16C116.932 41.9493 117.924 43.0053 118.606 44.328C119.31 45.6293 119.662 47.0373 119.662 48.552C119.662 48.808 119.652 49.0747 119.63 49.352C119.609 49.608 119.588 49.8213 119.566 49.992H106.606C106.692 50.8453 106.937 51.592 107.342 52.232C107.769 52.872 108.302 53.3627 108.942 53.704C109.604 54.024 110.308 54.184 111.054 54.184C111.908 54.184 112.708 53.9813 113.454 53.576C114.222 53.1493 114.745 52.5947 115.022 51.912L118.702 52.936C118.297 53.7893 117.71 54.5467 116.942 55.208C116.196 55.8693 115.31 56.392 114.286 56.776C113.262 57.1387 112.132 57.32 110.894 57.32ZM106.51 47.272H115.278C115.193 46.4187 114.948 45.6827 114.542 45.064C114.158 44.424 113.646 43.9333 113.006 43.592C112.366 43.2293 111.652 43.048 110.862 43.048C110.094 43.048 109.39 43.2293 108.75 43.592C108.132 43.9333 107.62 44.424 107.214 45.064C106.83 45.6827 106.596 46.4187 106.51 47.272ZM123.235 45.48C123.235 44.0933 123.48 42.7387 123.971 41.416C124.483 40.072 125.219 38.856 126.179 37.768C127.139 36.6587 128.312 35.784 129.699 35.144C131.085 34.4827 132.664 34.152 134.435 34.152C136.525 34.152 138.328 34.6107 139.843 35.528C141.379 36.4453 142.52 37.64 143.267 39.112L139.875 41.448C139.491 40.5947 138.989 39.9227 138.371 39.432C137.752 38.92 137.091 38.568 136.387 38.376C135.683 38.1627 134.989 38.056 134.307 38.056C133.197 38.056 132.227 38.28 131.395 38.728C130.584 39.176 129.901 39.7627 129.347 40.488C128.792 41.2133 128.376 42.024 128.099 42.92C127.843 43.816 127.715 44.712 127.715 45.608C127.715 46.6107 127.875 47.5813 128.195 48.52C128.515 49.4373 128.963 50.2587 129.539 50.984C130.136 51.688 130.84 52.2533 131.651 52.68C132.483 53.0853 133.389 53.288 134.371 53.288C135.075 53.288 135.789 53.1707 136.515 52.936C137.24 52.7013 137.912 52.328 138.531 51.816C139.149 51.304 139.629 50.6427 139.971 49.832L143.587 51.912C143.139 53.0427 142.403 54.0027 141.379 54.792C140.376 55.5813 139.245 56.1787 137.987 56.584C136.728 56.9893 135.48 57.192 134.243 57.192C132.621 57.192 131.139 56.8613 129.795 56.2C128.451 55.5173 127.288 54.6213 126.307 53.512C125.347 52.3813 124.589 51.1227 124.035 49.736C123.501 48.328 123.235 46.9093 123.235 45.48ZM146.9 52.04C146.9 50.952 147.199 50.0027 147.796 49.192C148.415 48.36 149.268 47.72 150.356 47.272C151.444 46.824 152.692 46.6 154.1 46.6C154.804 46.6 155.519 46.6533 156.244 46.76C156.969 46.8667 157.599 47.0373 158.132 47.272V46.376C158.132 45.3093 157.812 44.488 157.172 43.912C156.553 43.336 155.625 43.048 154.388 43.048C153.471 43.048 152.596 43.208 151.764 43.528C150.932 43.848 150.057 44.3173 149.14 44.936L147.764 42.12C148.873 41.3947 150.004 40.8507 151.156 40.488C152.329 40.1253 153.556 39.944 154.836 39.944C157.225 39.944 159.081 40.5413 160.404 41.736C161.748 42.9307 162.42 44.6373 162.42 46.856V52.2C162.42 52.648 162.495 52.968 162.644 53.16C162.815 53.352 163.081 53.4693 163.444 53.512V57C163.06 57.064 162.708 57.1173 162.388 57.16C162.089 57.2027 161.833 57.224 161.62 57.224C160.767 57.224 160.116 57.032 159.668 56.648C159.241 56.264 158.975 55.7947 158.868 55.24L158.772 54.376C158.047 55.3147 157.14 56.04 156.052 56.552C154.964 57.064 153.855 57.32 152.724 57.32C151.615 57.32 150.612 57.096 149.716 56.648C148.841 56.1787 148.148 55.5493 147.636 54.76C147.145 53.9493 146.9 53.0427 146.9 52.04ZM157.332 52.904C157.567 52.648 157.759 52.392 157.908 52.136C158.057 51.88 158.132 51.6453 158.132 51.432V49.736C157.62 49.5227 157.065 49.3627 156.468 49.256C155.871 49.128 155.305 49.064 154.772 49.064C153.663 49.064 152.745 49.3093 152.02 49.8C151.316 50.2693 150.964 50.8987 150.964 51.688C150.964 52.1147 151.081 52.52 151.316 52.904C151.551 53.288 151.892 53.5973 152.34 53.832C152.788 54.0667 153.321 54.184 153.94 54.184C154.58 54.184 155.209 54.0667 155.828 53.832C156.447 53.576 156.948 53.2667 157.332 52.904Z" fill="white"/>
<path d="M174.939 34.28H179.419L187.771 57H183.227L181.115 51.336H173.179L171.099 57H166.555L174.939 34.28ZM180.315 48.232L177.179 38.856L173.915 48.232H180.315ZM201.751 43.944C200.45 43.944 199.287 44.2 198.263 44.712C197.239 45.2027 196.503 45.9173 196.055 46.856V57H191.767V40.232H195.703V43.816C196.3 42.664 197.058 41.7573 197.975 41.096C198.892 40.4347 199.863 40.072 200.887 40.008C201.122 40.008 201.303 40.008 201.431 40.008C201.559 40.008 201.666 40.0187 201.751 40.04V43.944ZM216.11 56.136C215.747 56.2853 215.31 56.456 214.798 56.648C214.286 56.84 213.731 56.9893 213.134 57.096C212.558 57.224 211.971 57.288 211.374 57.288C210.585 57.288 209.859 57.1493 209.198 56.872C208.537 56.5947 208.003 56.1573 207.598 55.56C207.214 54.9413 207.022 54.1413 207.022 53.16V43.528H204.814V40.232H207.022V34.792H211.31V40.232H214.83V43.528H211.31V51.72C211.331 52.296 211.491 52.712 211.79 52.968C212.089 53.224 212.462 53.352 212.91 53.352C213.358 53.352 213.795 53.2773 214.222 53.128C214.649 52.9787 214.99 52.8507 215.246 52.744L216.11 56.136Z" fill="#EC9A1E"/>
<path d="M91 0V23.88H24.5V91H0V0H91Z" fill="#858585"/>
<path d="M247 0V91H163V67.1305H223V0H247Z" fill="#EC9A1E"/>
</svg>
